<svg width="500" height="301" viewBox="0 0 500 301" fill="none" xmlns="http://www.w3.org/2000/svg">
<g clip-path="url(#clip0_146_141)">
<path d="M26.0867 299.949C26.0533 299.801 22.8183 285.05 29.4249 272.798C36.0315 260.546 50.1339 255.143 50.2756 255.09L50.9201 254.848L51.0724 255.52C51.1058 255.667 54.3407 270.418 47.7341 282.671C41.1278 294.922 27.0252 300.325 26.8835 300.379L26.2387 300.62L26.0867 299.949ZM50.0362 256.487C47.2114 257.702 36.0626 263.02 30.4828 273.368C24.9024 283.717 26.586 295.955 27.1229 298.981C29.9465 297.769 41.0909 292.459 46.6763 282.1C52.2564 271.752 50.5733 259.515 50.0362 256.487V256.487Z" fill="#4DC37D"/>
<path d="M42.686 278.373C30.8137 285.516 26.2412 299.703 26.2412 299.703C26.2412 299.703 40.9177 302.31 52.7901 295.167C64.6625 288.025 69.2349 273.837 69.2349 273.837C69.2349 273.837 54.5584 271.23 42.686 278.373Z" fill="#4DC37D"/>
<path d="M222.478 163.867C222.659 162.933 222.633 161.97 222.402 161.046C222.17 160.123 221.739 159.262 221.139 158.523C220.539 157.784 219.784 157.186 218.927 156.771C218.071 156.355 217.134 156.133 216.182 156.119L210.684 142.292L201.467 143.584L209.505 163C209.588 164.601 210.254 166.116 211.379 167.258C212.503 168.399 214.008 169.089 215.607 169.196C217.206 169.303 218.788 168.819 220.055 167.837C221.321 166.855 222.183 165.443 222.478 163.867V163.867Z" fill="#FFB6B6"/>
<path d="M205.498 159.009L202.642 152.199L184.845 118.322L185.812 55.6379L185.998 55.6133C197.386 54.1087 205.091 106.579 205.413 108.814L216.658 147.271L219.335 155.747L205.498 159.009Z" fill="black"/>
<path d="M178.152 291.189L186.805 291.188L190.921 257.812L178.15 257.813L178.152 291.189Z" fill="#FFB6B6"/>
<path d="M175.944 288.364L192.985 288.363H192.986C195.866 288.363 198.628 289.507 200.665 291.544C202.701 293.58 203.845 296.342 203.846 299.223V299.575L175.945 299.576L175.944 288.364Z" fill="black"/>
<path d="M98.5908 278.005L105.691 282.952L128.15 257.924L117.672 250.622L98.5908 278.005Z" fill="#FFB6B6"/>
<path d="M98.3948 274.425L112.376 284.168L112.377 284.168C114.739 285.815 116.351 288.333 116.858 291.168C117.364 294.004 116.724 296.924 115.077 299.287L114.876 299.576L91.9844 283.625L98.3948 274.425Z" fill="black"/>
<path d="M173.396 283.344L173.023 220.733L167.578 181.364L157.427 215.985L157.408 216.014L120.623 269.417L106.31 262.165L106.388 261.979C107.263 259.898 127.874 211.033 133.415 211.033C133.898 211.067 134.383 210.983 134.827 210.788C135.271 210.593 135.661 210.293 135.963 209.913C137.589 207.742 136.265 203.135 136.252 203.088C134.666 196.512 138.653 194.272 139.448 193.898L141.584 149.8L141.805 149.816L199.717 153.878L197.288 209.012L192.061 281.249L191.882 281.269L173.396 283.344Z" fill="black"/>
<path d="M200.602 163.649L200.351 163.629L138.068 158.608L138.222 138.001L141.271 84.1928L141.288 84.1555L153.702 57.2038L162.503 53.2189L175.342 52.5433L175.373 52.5511L187.091 55.4542L199.28 142.956L200.602 163.649Z" fill="black"/>
<path d="M177.354 45.6361C185.3 41.292 188.221 31.3283 183.877 23.3815C179.533 15.4348 169.569 12.5142 161.622 16.8583C153.676 21.2024 150.755 31.1661 155.099 39.1129C159.443 47.0596 169.407 49.9801 177.354 45.6361Z" fill="#FFB6B6"/>
<path d="M152.996 35.3636V28.9743C152.996 28.9743 147.844 22.9059 153.511 21.3773C153.511 21.3773 155.057 6.0909 168.454 13.2245C168.454 13.2245 187.003 10.1673 184.942 20.8677C184.942 20.8677 189.579 18.0742 188.033 25.2078L185.044 36.6989C185.044 36.6989 186.488 29.1082 181.85 28.0891L179.274 26.5605C179.274 26.5605 172.061 33.6941 161.24 25.0318C161.24 25.0318 156.603 23.925 157.118 28.511C157.633 33.0969 152.996 35.3636 152.996 35.3636Z" fill="black"/>
<path d="M167.781 148.26C167.791 147.308 167.592 146.366 167.199 145.499C166.806 144.632 166.227 143.862 165.504 143.243C164.781 142.624 163.931 142.171 163.014 141.916C162.097 141.661 161.135 141.61 160.196 141.767L152.306 129.152L143.471 132.077L154.863 149.735C155.231 151.295 156.159 152.666 157.47 153.587C158.781 154.509 160.385 154.917 161.977 154.735C163.569 154.554 165.04 153.794 166.109 152.6C167.179 151.407 167.774 149.863 167.781 148.26V148.26Z" fill="#FFB6B6"/>
<path d="M147.403 144.283L133.129 115.303L133.142 115.233C133.199 114.912 138.945 83.0091 143.339 71.2826C147.761 59.4817 153.815 57.1124 154.07 57.0173L154.198 56.9698L159.626 62.1759L152.107 112.36L160.211 136.563L147.403 144.283Z" fill="black"/>
<path d="M500 0H472.362V27.6374H500V0Z" fill="#F1F1F1"/>
<path d="M283.708 107.545H256.07V135.183H283.708V107.545Z" fill="#F1F1F1"/>
<path d="M271.582 123.072H490.082V12.4572H271.582V123.072Z" fill="white"/>
<path d="M491.886 124.875H269.78V10.6547H491.886V124.875ZM273.385 121.27H488.281V14.2596H273.385V121.27Z" fill="#E5E5E5"/>
<path d="M465.921 51.2589H297.81V56.8339H465.921V51.2589Z" fill="#4DC37D"/>
<path d="M465.921 64.779H297.81V70.354H465.921V64.779Z" fill="#4DC37D"/>
<path d="M465.921 84.7419H434.679V89.58H465.921V84.7419Z" fill="black"/>
<path d="M229.51 300.596H0.600813C0.441467 300.596 0.288648 300.533 0.175973 300.42C0.0632993 300.307 0 300.155 0 299.995C0 299.836 0.0632993 299.683 0.175973 299.57C0.288648 299.458 0.441467 299.395 0.600813 299.395H229.51C229.67 299.395 229.823 299.458 229.935 299.57C230.048 299.683 230.111 299.836 230.111 299.995C230.111 300.155 230.048 300.307 229.935 300.42C229.823 300.533 229.67 300.596 229.51 300.596Z" fill="#CBCBCB"/>
</g>
<defs>
<clipPath id="clip0_146_141">
<rect width="500" height="300.62" fill="white"/>
</clipPath>
</defs>
</svg>
