<svg width="400" height="369" viewBox="0 0 400 369" fill="none" xmlns="http://www.w3.org/2000/svg">
<g clip-path="url(#clip0_204_309)">
<path d="M283.505 337.534H101.054C96.721 337.529 92.5669 335.805 89.5035 332.741C86.4401 329.676 84.7177 325.522 84.7144 321.188V251.056C84.3366 251.486 83.9413 251.911 83.5342 252.324V321.188C83.5384 325.834 85.3854 330.289 88.6699 333.574C91.9545 336.86 96.4082 338.708 101.054 338.714H284.019C283.842 338.325 283.671 337.929 283.505 337.534ZM84.7144 78.3056C84.7177 73.9725 86.4401 69.8178 89.5035 66.7533C92.5669 63.6887 96.721 61.9649 101.054 61.96H161.846C161.734 61.5646 161.627 61.1751 161.527 60.7798H101.054C96.4082 60.7856 91.9545 62.6341 88.6699 65.9197C85.3854 69.2054 83.5384 73.6598 83.5342 78.3056V185.821C83.9413 186.234 84.3309 186.659 84.7144 187.089V78.3056ZM329.698 92.0902L291.578 61.8951C290.668 61.1736 289.541 60.7806 288.38 60.7798H254.455C254.36 61.1751 254.254 61.5705 254.142 61.96H288.38C289.274 61.9621 290.142 62.2633 290.846 62.8156L328.966 93.0166C329.328 93.302 329.62 93.666 329.821 94.0811C330.021 94.4962 330.124 94.9515 330.123 95.4124V271.16C330.518 271.172 330.914 271.202 331.303 271.231V95.4124C331.305 94.7732 331.162 94.1418 330.884 93.5662C330.606 92.9906 330.2 92.4858 329.698 92.0902Z" fill="#3F3D56"/>
<path d="M329.194 93.6491H298.434C297.323 93.6491 296.222 93.4301 295.194 93.0046C294.167 92.5791 293.234 91.9555 292.448 91.1693C291.661 90.3831 291.038 89.4497 290.612 88.4225C290.187 87.3953 289.968 86.2943 289.968 85.1824V62.4642C289.968 62.3648 289.996 62.2673 290.049 62.183C290.102 62.0988 290.177 62.0311 290.267 61.9878C290.356 61.9445 290.456 61.9273 290.555 61.9382C290.654 61.9491 290.748 61.9877 290.826 62.0494L329.522 92.7051C329.608 92.7734 329.671 92.8667 329.702 92.9722C329.732 93.0777 329.729 93.1901 329.693 93.2939C329.657 93.3977 329.59 93.4876 329.5 93.5512C329.411 93.6149 329.303 93.6491 329.194 93.6491Z" fill="#E6E6E6"/>
<path d="M329.194 94.239H298.435C296.034 94.2363 293.732 93.2812 292.034 91.5833C290.336 89.8854 289.381 87.5833 289.378 85.1822V62.4641C289.378 62.2537 289.437 62.0476 289.549 61.8694C289.661 61.6912 289.821 61.5481 290.01 61.4564C290.199 61.3648 290.411 61.3284 290.62 61.3514C290.829 61.3744 291.027 61.4559 291.192 61.5865L329.889 92.2425C330.071 92.3868 330.204 92.5842 330.269 92.8074C330.333 93.0305 330.327 93.2684 330.251 93.4878C330.175 93.7073 330.032 93.8976 329.842 94.0322C329.653 94.1668 329.426 94.2391 329.194 94.239V94.239ZM290.558 62.59V85.1822C290.56 87.2705 291.391 89.2725 292.868 90.7492C294.344 92.2258 296.346 93.0565 298.435 93.0588H329.019L290.558 62.59Z" fill="#3F3D56"/>
<path d="M268.136 132.807H177.648C176.526 132.807 175.449 132.361 174.655 131.567C173.861 130.773 173.415 129.697 173.415 128.574C173.415 127.451 173.861 126.374 174.655 125.58C175.449 124.787 176.526 124.341 177.648 124.341H268.136C269.259 124.341 270.335 124.787 271.129 125.58C271.923 126.374 272.369 127.451 272.369 128.574C272.369 129.697 271.923 130.773 271.129 131.567C270.335 132.361 269.259 132.807 268.136 132.807Z" fill="#CCCCCC"/>
<path d="M285.598 147.095H177.648C176.526 147.095 175.449 146.649 174.655 145.855C173.861 145.061 173.415 143.984 173.415 142.862C173.415 141.739 173.861 140.662 174.655 139.868C175.449 139.074 176.526 138.628 177.648 138.628H285.598C286.721 138.628 287.798 139.074 288.592 139.868C289.386 140.662 289.832 141.739 289.832 142.862C289.832 143.984 289.386 145.061 288.592 145.855C287.798 146.649 286.721 147.095 285.598 147.095H285.598Z" fill="#CCCCCC"/>
<path d="M268.136 196.837H177.648C176.526 196.837 175.449 196.391 174.655 195.597C173.861 194.803 173.415 193.726 173.415 192.603C173.415 191.48 173.861 190.404 174.655 189.61C175.449 188.816 176.526 188.37 177.648 188.37H268.136C269.259 188.37 270.335 188.816 271.129 189.61C271.923 190.404 272.369 191.48 272.369 192.603C272.369 193.726 271.923 194.803 271.129 195.597C270.335 196.391 269.259 196.837 268.136 196.837Z" fill="#CCCCCC"/>
<path d="M285.598 211.124H177.648C176.526 211.124 175.449 210.678 174.655 209.884C173.861 209.09 173.415 208.014 173.415 206.891C173.415 205.768 173.861 204.691 174.655 203.897C175.449 203.103 176.526 202.657 177.648 202.657H285.598C286.721 202.657 287.798 203.103 288.592 203.897C289.386 204.691 289.832 205.768 289.832 206.891C289.832 208.014 289.386 209.09 288.592 209.884C287.798 210.678 286.721 211.124 285.598 211.124H285.598Z" fill="#CCCCCC"/>
<path d="M268.136 260.866H177.648C177.092 260.866 176.542 260.756 176.028 260.544C175.515 260.331 175.048 260.019 174.655 259.626C174.262 259.233 173.95 258.766 173.737 258.253C173.525 257.739 173.415 257.188 173.415 256.632C173.415 256.077 173.525 255.526 173.737 255.012C173.95 254.499 174.262 254.032 174.655 253.639C175.048 253.246 175.515 252.934 176.028 252.721C176.542 252.509 177.092 252.399 177.648 252.399H268.136C269.259 252.399 270.335 252.845 271.129 253.639C271.923 254.433 272.369 255.51 272.369 256.632C272.369 257.755 271.923 258.832 271.129 259.626C270.335 260.42 269.259 260.866 268.136 260.866V260.866Z" fill="#CCCCCC"/>
<path d="M285.598 275.153H177.648C177.092 275.153 176.542 275.044 176.028 274.831C175.515 274.618 175.048 274.306 174.655 273.913C174.262 273.52 173.95 273.054 173.737 272.54C173.525 272.026 173.415 271.476 173.415 270.92C173.415 270.364 173.525 269.813 173.737 269.3C173.95 268.786 174.262 268.32 174.655 267.926C175.048 267.533 175.515 267.222 176.028 267.009C176.542 266.796 177.092 266.687 177.648 266.687H285.598C286.154 266.687 286.705 266.796 287.218 267.009C287.732 267.222 288.199 267.533 288.592 267.926C288.985 268.32 289.297 268.786 289.51 269.3C289.722 269.813 289.832 270.364 289.832 270.92C289.832 271.476 289.722 272.026 289.51 272.54C289.297 273.054 288.985 273.52 288.592 273.913C288.199 274.306 287.732 274.618 287.218 274.831C286.705 275.044 286.154 275.153 285.598 275.153H285.598Z" fill="#CCCCCC"/>
<path d="M139.967 150.68C148.231 150.68 154.93 143.981 154.93 135.718C154.93 127.454 148.231 120.755 139.967 120.755C131.704 120.755 125.005 127.454 125.005 135.718C125.005 143.981 131.704 150.68 139.967 150.68Z" fill="black"/>
<path d="M138.485 141.426C138.148 141.426 137.821 141.317 137.551 141.115L137.534 141.103L134.018 138.413C133.855 138.288 133.718 138.132 133.615 137.955C133.512 137.777 133.445 137.581 133.418 137.377C133.391 137.173 133.404 136.967 133.457 136.768C133.51 136.57 133.602 136.384 133.727 136.221C133.852 136.058 134.008 135.921 134.186 135.818C134.363 135.715 134.56 135.649 134.764 135.622C134.967 135.595 135.174 135.609 135.373 135.662C135.571 135.715 135.757 135.807 135.92 135.933L138.197 137.679L143.579 130.658C143.704 130.495 143.86 130.358 144.037 130.256C144.215 130.153 144.411 130.086 144.615 130.059C144.818 130.032 145.025 130.046 145.223 130.099C145.421 130.152 145.607 130.243 145.769 130.368L145.77 130.369L145.736 130.415L145.771 130.369C146.099 130.621 146.314 130.993 146.368 131.404C146.422 131.815 146.311 132.23 146.06 132.559L139.729 140.814C139.583 141.005 139.394 141.158 139.179 141.264C138.963 141.37 138.726 141.424 138.486 141.424L138.485 141.426Z" fill="white"/>
<path d="M139.967 214.709C148.231 214.709 154.93 208.01 154.93 199.747C154.93 191.483 148.231 184.784 139.967 184.784C131.704 184.784 125.005 191.483 125.005 199.747C125.005 208.01 131.704 214.709 139.967 214.709Z" fill="#E6E6E6"/>
<path d="M138.485 205.455C138.148 205.455 137.821 205.346 137.551 205.144L137.535 205.132L134.018 202.442C133.689 202.19 133.474 201.817 133.42 201.406C133.365 200.996 133.477 200.58 133.729 200.251C133.981 199.922 134.353 199.707 134.764 199.653C135.175 199.598 135.591 199.71 135.92 199.962L138.197 201.708L143.579 194.687C143.704 194.524 143.86 194.387 144.038 194.285C144.215 194.182 144.411 194.115 144.615 194.088C144.818 194.062 145.025 194.075 145.223 194.128C145.421 194.181 145.607 194.273 145.769 194.397L145.77 194.398L145.737 194.444L145.771 194.398C146.099 194.65 146.314 195.022 146.368 195.433C146.422 195.844 146.312 196.259 146.06 196.588L139.729 204.843C139.583 205.034 139.394 205.188 139.179 205.293C138.963 205.399 138.726 205.454 138.486 205.453L138.485 205.455Z" fill="white"/>
<path d="M139.967 278.739C148.231 278.739 154.93 272.04 154.93 263.776C154.93 255.513 148.231 248.814 139.967 248.814C131.704 248.814 125.005 255.513 125.005 263.776C125.005 272.04 131.704 278.739 139.967 278.739Z" fill="#E6E6E6"/>
<path d="M138.485 269.484C138.148 269.485 137.821 269.376 137.551 269.174L137.534 269.161L134.018 266.471C133.855 266.347 133.718 266.191 133.615 266.013C133.512 265.835 133.445 265.639 133.418 265.435C133.391 265.232 133.404 265.025 133.457 264.826C133.51 264.628 133.602 264.442 133.727 264.279C133.852 264.116 134.008 263.979 134.186 263.876C134.363 263.774 134.56 263.707 134.764 263.68C134.967 263.654 135.174 263.667 135.373 263.721C135.571 263.774 135.757 263.866 135.92 263.991L138.197 265.738L143.579 258.716C143.704 258.553 143.86 258.416 144.037 258.314C144.215 258.211 144.411 258.145 144.615 258.118C144.818 258.091 145.025 258.104 145.223 258.157C145.421 258.21 145.607 258.302 145.769 258.427L145.77 258.427L145.736 258.473L145.771 258.427C146.099 258.679 146.314 259.052 146.368 259.462C146.422 259.873 146.311 260.288 146.06 260.617L139.729 268.873C139.583 269.063 139.394 269.217 139.179 269.323C138.963 269.428 138.726 269.483 138.486 269.482L138.485 269.484Z" fill="white"/>
<path d="M350.337 362.509C349.492 362.951 348.634 363.368 347.76 363.762C346.965 364.122 346.157 364.459 345.337 364.775C345.037 364.89 344.732 365.004 344.427 365.118C342.015 365.993 339.538 366.676 337.019 367.161C335.772 367.406 334.508 367.599 333.228 367.738C332.172 367.858 331.104 367.943 330.026 367.994C329.258 368.032 328.49 368.049 327.716 368.049C324.653 368.05 321.597 367.764 318.587 367.194C317.803 367.052 317.035 366.883 316.267 366.698C312.552 365.808 308.956 364.48 305.553 362.744C305.248 362.591 304.943 362.428 304.638 362.27C304.186 362.03 303.745 361.78 303.304 361.518C303.516 361.224 303.745 360.935 303.979 360.652C306.528 357.493 309.713 354.907 313.328 353.063C316.943 351.218 320.907 350.155 324.96 349.944C329.013 349.734 333.065 350.38 336.852 351.84C340.639 353.3 344.075 355.542 346.938 358.419C347.931 359.416 348.852 360.482 349.694 361.611C349.917 361.905 350.13 362.204 350.337 362.509Z" fill="black"/>
<path d="M328.803 338.583C342.012 338.583 352.72 327.875 352.72 314.666C352.72 301.458 342.012 290.75 328.803 290.75C315.595 290.75 304.887 301.458 304.887 314.666C304.887 327.875 315.595 338.583 328.803 338.583Z" fill="#2F2E41"/>
<path d="M335.164 338.617C343.791 333.901 346.961 323.086 342.245 314.46C337.53 305.833 326.714 302.663 318.088 307.379C309.462 312.094 306.291 322.91 311.007 331.536C315.722 340.162 326.538 343.333 335.164 338.617Z" fill="#FFB8B8"/>
<path d="M345.331 311.801C341.263 314.605 336.435 316.097 331.495 316.077C333.257 317.299 335.263 318.124 337.375 318.496C330.807 319.905 324.018 319.943 317.434 318.608C315.971 318.374 314.559 317.889 313.26 317.175C312.613 316.813 312.049 316.32 311.605 315.726C311.161 315.132 310.847 314.452 310.683 313.729C310.246 311.229 312.193 308.959 314.217 307.428C317.316 305.121 320.889 303.531 324.677 302.774C328.465 302.017 332.375 302.112 336.122 303.051C338.569 303.684 341.02 304.752 342.61 306.717C344.199 308.682 344.67 311.712 343.156 313.736L345.331 311.801Z" fill="#2F2E41"/>
<path d="M331.302 270.134C330.913 270.104 330.517 270.08 330.122 270.063C329.325 270.021 328.523 270.004 327.714 270.004C319.676 270.004 311.761 271.981 304.666 275.761C297.572 279.54 291.516 285.007 287.031 291.678C282.547 298.35 279.772 306.022 278.952 314.018C278.131 322.015 279.289 330.091 282.324 337.534C282.484 337.929 282.649 338.325 282.826 338.714C286.881 347.901 293.641 355.633 302.205 360.878L302.518 361.061C302.783 361.22 303.042 361.374 303.302 361.516C303.745 361.781 304.188 362.029 304.636 362.271C304.943 362.43 305.25 362.589 305.55 362.743C308.953 364.48 312.551 365.808 316.267 366.697C317.034 366.885 317.801 367.051 318.586 367.192C321.595 367.762 324.651 368.049 327.714 368.048C328.487 368.048 329.255 368.03 330.028 367.995C331.102 367.948 332.17 367.859 333.226 367.741C334.507 367.599 335.771 367.407 337.02 367.163C339.538 366.676 342.014 365.994 344.426 365.121C344.733 365.003 345.04 364.891 345.335 364.773C346.161 364.46 346.963 364.124 347.76 363.764C348.633 363.368 349.493 362.949 350.339 362.507C358.817 358.065 365.825 351.259 370.514 342.916C370.535 342.871 370.559 342.828 370.585 342.786C374.577 335.59 376.694 327.505 376.739 319.276C376.784 311.047 374.756 302.94 370.842 295.701C366.928 288.462 361.254 282.326 354.344 277.857C347.434 273.389 339.509 270.733 331.302 270.133L331.302 270.134ZM374.804 328.022C373.856 332.972 372.13 337.74 369.688 342.149C369.647 342.225 369.605 342.302 369.564 342.373C364.971 350.595 358.061 357.285 349.695 361.61C348.857 362.047 348.01 362.456 347.152 362.837C346.438 363.156 345.706 363.463 344.969 363.746C344.662 363.864 344.343 363.988 344.03 364.094C341.946 364.855 339.811 365.467 337.64 365.924C336.03 366.268 334.403 366.524 332.766 366.691C331.757 366.803 330.736 366.88 329.703 366.915C329.042 366.944 328.381 366.962 327.714 366.962C324.75 366.963 321.793 366.687 318.881 366.136C317.108 365.811 315.357 365.382 313.635 364.85C311.012 364.041 308.463 363.009 306.017 361.763C305.733 361.616 305.45 361.468 305.173 361.315C304.772 361.102 304.37 360.884 303.981 360.654C303.686 360.489 303.391 360.312 303.102 360.141C302.93 360.04 302.765 359.94 302.594 359.834C294.442 354.795 287.975 347.443 284.018 338.714C283.841 338.325 283.67 337.929 283.505 337.534C280.455 330.249 279.253 322.324 280.005 314.463C280.757 306.602 283.439 299.048 287.814 292.473C292.189 285.899 298.121 280.507 305.082 276.777C312.043 273.048 319.817 271.096 327.714 271.095C328.523 271.095 329.325 271.113 330.122 271.16C330.517 271.172 330.913 271.202 331.302 271.231C338.036 271.741 344.585 273.668 350.523 276.884C356.461 280.1 361.653 284.533 365.759 289.894C369.865 295.254 372.794 301.422 374.352 307.992C375.911 314.562 376.065 321.388 374.804 328.022L374.804 328.022Z" fill="#3F3D56"/>
<path d="M316.692 291.08C316.434 288.374 313.12 286.708 310.527 287.525C307.935 288.343 306.233 290.953 305.718 293.622C305.471 294.746 305.448 295.908 305.65 297.041C305.852 298.174 306.276 299.256 306.898 300.225C308.208 302.111 310.616 303.288 312.862 302.809C315.426 302.262 317.202 299.759 317.71 297.187C318.219 294.615 317.714 291.964 317.21 289.392L316.692 291.08Z" fill="#2F2E41"/>
<path d="M353.176 294.945C352.919 292.239 349.604 290.573 347.012 291.391C344.419 292.208 342.717 294.818 342.203 297.487C341.955 298.612 341.932 299.773 342.134 300.906C342.337 302.039 342.761 303.121 343.382 304.09C344.692 305.976 347.1 307.153 349.346 306.674C351.91 306.128 353.687 303.624 354.195 301.053C354.703 298.481 354.198 295.83 353.694 293.257L353.176 294.945Z" fill="#2F2E41"/>
<path d="M234.137 89.8394C226.549 94.6984 217.757 97.3481 208.748 97.4915C199.738 97.6348 190.867 95.2661 183.128 90.651C184.489 88.1167 186.214 85.7954 188.248 83.7608C191.386 80.6079 195.205 78.2162 199.412 76.7695C203.618 75.3229 208.1 74.8597 212.514 75.4157C216.927 75.9717 221.155 77.5319 224.871 79.9766C228.587 82.4213 231.694 85.6854 233.952 89.518C234.012 89.6215 234.077 89.7305 234.137 89.8394Z" fill="black"/>
<path d="M206.503 63.7927C219.8 63.7927 230.579 53.0137 230.579 39.7171C230.579 26.4204 219.8 15.6414 206.503 15.6414C193.207 15.6414 182.428 26.4204 182.428 39.7171C182.428 53.0137 193.207 63.7927 206.503 63.7927Z" fill="#2F2E41"/>
<path d="M222.058 56.6986C226.805 48.0151 223.613 37.1275 214.93 32.3806C206.246 27.6338 195.358 30.8251 190.612 39.5087C185.865 48.1923 189.056 59.0798 197.74 63.8267C206.423 68.5735 217.311 65.3822 222.058 56.6986Z" fill="#FFB8B8"/>
<path d="M189.866 36.8328C193.961 39.655 198.821 41.157 203.794 41.1371C202.02 42.3671 200.001 43.198 197.875 43.5724C204.487 44.9908 211.32 45.0292 217.948 43.6852C219.421 43.449 220.843 42.9608 222.15 42.242C222.802 41.8781 223.369 41.3812 223.816 40.7836C224.263 40.1859 224.579 39.5009 224.744 38.7731C225.184 36.2572 223.224 33.9714 221.186 32.4309C218.067 30.1083 214.471 28.5081 210.657 27.746C206.843 26.984 202.908 27.0791 199.136 28.0246C196.672 28.6613 194.205 29.737 192.605 31.7152C191.005 33.6934 190.531 36.743 192.055 38.78L189.866 36.8328Z" fill="#2F2E41"/>
<path d="M207.979 0C194.982 0.0144507 182.522 5.1834 173.331 14.373C164.141 23.5625 158.97 36.0223 158.954 49.0191C158.956 52.9839 159.444 56.9335 160.406 60.7797C160.506 61.1751 160.606 61.5705 160.713 61.9599C163.54 72.3275 169.7 81.4771 178.242 87.998C186.783 94.519 197.233 98.0491 207.979 98.0442C218.728 98.0439 229.178 94.5124 237.724 87.9927C246.269 81.4731 252.436 72.3265 255.275 61.9599C255.382 61.5646 255.482 61.1751 255.576 60.7797C257.354 53.5586 257.466 46.0277 255.905 38.7567C254.344 31.4856 251.151 24.6646 246.565 18.8095C241.98 12.9544 236.124 8.21851 229.439 4.95988C222.754 1.70125 215.416 0.0052026 207.979 0V0ZM254.455 60.7797C254.36 61.1751 254.254 61.5705 254.142 61.9599C252.151 69.0506 248.554 75.5875 243.629 81.0637C238.704 86.5398 232.584 90.8081 225.744 93.5376C218.903 96.2671 211.526 97.3843 204.184 96.8028C196.842 96.2212 189.733 93.9565 183.408 90.1841C172.895 83.8579 165.185 73.7662 161.846 61.9599C161.733 61.5646 161.627 61.1751 161.527 60.7797C160.543 56.9369 160.046 52.9858 160.046 49.0191C160.053 42.2292 161.504 35.5183 164.3 29.3311C167.097 23.1438 171.176 17.6214 176.268 13.1295C181.36 8.63767 187.348 5.27895 193.836 3.27582C200.324 1.27269 207.163 0.670865 213.901 1.51021C220.639 2.34955 227.122 4.6109 232.92 8.14449C238.718 11.6781 243.699 16.4032 247.533 22.007C251.367 27.6108 253.967 33.9653 255.161 40.6496C256.354 47.3339 256.113 54.1954 254.455 60.7797H254.455Z" fill="#3F3D56"/>
<path d="M75.1845 259.866C67.5967 264.725 58.8056 267.375 49.7963 267.519C40.7871 267.663 31.9158 265.295 24.1768 260.68C24.2592 260.521 24.3476 260.362 24.4421 260.208C26.9245 255.733 30.5423 251.992 34.931 249.36C39.3196 246.728 44.3243 245.3 49.4409 245.218C54.5575 245.136 59.6054 246.403 64.0761 248.893C68.5468 251.383 72.2825 255.007 74.907 259.4C74.9424 259.447 74.9718 259.5 75.0015 259.547C75.0606 259.648 75.1254 259.76 75.1845 259.866Z" fill="black"/>
<path d="M71.6251 209.743C71.6251 214.505 70.2131 219.16 67.5676 223.119C64.9221 227.078 61.162 230.164 56.7627 231.986C52.3634 233.808 47.5226 234.285 42.8524 233.356C38.1821 232.427 33.8923 230.134 30.5252 226.767C27.1582 223.4 24.8652 219.11 23.9362 214.44C23.0073 209.77 23.4841 204.929 25.3063 200.53C27.1286 196.13 30.2144 192.37 34.1736 189.725C38.1329 187.079 42.7877 185.667 47.5494 185.667C50.7153 185.652 53.8528 186.265 56.7807 187.469C59.7085 188.674 62.3686 190.447 64.6073 192.685C66.8459 194.924 68.6188 197.584 69.8233 200.512C71.0279 203.44 71.6403 206.577 71.6251 209.743V209.743Z" fill="#2F2E41"/>
<path d="M66.4154 224.702C66.1398 225.395 65.8226 226.071 65.4654 226.726C63.1857 230.896 59.343 233.989 54.7827 235.326C50.2223 236.663 45.3178 236.133 41.1477 233.854C39.0812 232.727 37.2571 231.203 35.7798 229.37C34.3025 227.537 33.2008 225.431 32.5378 223.172C31.8748 220.913 31.6634 218.546 31.9157 216.205C32.168 213.864 32.8791 211.596 34.0082 209.531C35.1374 207.465 36.6626 205.642 38.4966 204.166C40.3306 202.69 42.4375 201.59 44.6968 200.928C46.9562 200.267 49.3237 200.057 51.6642 200.311C54.0046 200.565 56.2721 201.278 58.337 202.408C62.1677 204.503 65.1021 207.924 66.5895 212.028C68.0769 216.133 68.015 220.64 66.4154 224.702V224.702Z" fill="#FFB8B8"/>
<path d="M84.7142 185.49C84.3365 185.077 83.9412 184.67 83.534 184.275C76.9771 177.777 68.7177 173.263 59.7074 171.255C50.6972 169.246 41.3028 169.824 32.6066 172.921C23.9103 176.019 16.2662 181.51 10.5549 188.763C4.84362 196.016 1.29754 204.734 0.325261 213.914C-0.647019 223.094 0.994055 232.362 5.05941 240.65C9.12477 248.938 15.449 255.909 23.3034 260.76C31.1578 265.61 40.2228 268.143 49.4539 268.067C58.685 267.99 67.7066 265.307 75.4793 260.326C78.3821 258.463 81.0817 256.302 83.534 253.876C83.9354 253.481 84.3307 253.08 84.7142 252.667C93.2762 243.579 98.0444 231.564 98.0444 219.079C98.0444 206.593 93.2762 194.578 84.7142 185.49V185.49ZM83.534 252.324C80.9425 255.01 78.0473 257.384 74.9068 259.4C74.901 259.406 74.895 259.406 74.8892 259.412C67.386 264.215 58.6935 266.835 49.7855 266.976C40.8774 267.118 32.1059 264.777 24.4537 260.214C24.4479 260.214 24.448 260.208 24.4419 260.208C18.573 256.708 13.5203 251.994 9.62267 246.382C5.72505 240.769 3.07264 234.388 1.84332 227.666C0.614007 220.944 0.836212 214.037 2.49504 207.409C4.15387 200.78 7.21095 194.582 11.4613 189.232C15.7116 183.881 21.0569 179.502 27.1386 176.386C33.2204 173.271 39.8979 171.492 46.7235 171.169C53.5491 170.846 60.3648 171.986 66.7136 174.513C73.0624 177.04 78.7974 180.896 83.5341 185.821C83.9412 186.234 84.3307 186.659 84.7142 187.09C92.5946 195.879 96.9527 207.268 96.9527 219.073C96.9527 230.877 92.5946 242.267 84.7142 251.056C84.3365 251.487 83.9412 251.911 83.534 252.324Z" fill="#3F3D56"/>
<path d="M67.0632 189.749C65.8771 187.736 64.1578 186.09 62.095 184.992C60.0322 183.895 57.7062 183.389 55.3739 183.53C52.9259 183.713 50.5967 184.615 48.3096 185.507L36.6821 190.043C33.6733 191.217 30.378 192.654 29.0724 195.608C27.8606 198.35 28.7647 201.516 29.6799 204.371L34.0302 217.939C34.6263 214.891 35.2318 211.813 36.4955 208.976C37.7591 206.139 39.7577 203.523 42.5209 202.106C45.5412 200.556 49.101 200.589 52.4916 200.752C57.2936 200.983 62.5146 201.594 65.9265 204.981C67.7376 206.904 68.9655 209.302 69.4673 211.896C69.9613 214.476 70.2099 217.097 70.2099 219.724C72.179 216.339 73.8378 212.783 75.1658 209.099C76.2582 206.356 76.8807 203.449 77.0072 200.499C77.0332 197.553 76.1992 194.514 74.2348 192.318C72.2703 190.123 69.0695 188.937 66.2547 189.807" fill="#2F2E41"/>
<path d="M30.3968 125.007L29.2168 124.993C29.2308 123.813 29.2648 122.615 29.3179 121.434L30.4969 121.487C30.4444 122.655 30.4108 123.84 30.3968 125.007Z" fill="#E6E6E6"/>
<path d="M31.016 114.748L29.8428 114.62C30.0892 112.364 30.4119 110.089 30.802 107.858L31.9646 108.061C31.5788 110.267 31.2597 112.517 31.016 114.748ZM33.3423 101.45L32.1952 101.172C32.7294 98.9678 33.3427 96.7532 34.0183 94.5891L35.1449 94.9406C34.4769 97.0806 33.8704 99.2707 33.3423 101.45ZM37.3682 88.555L36.2668 88.1309C37.0819 86.0137 37.9774 83.8951 38.9284 81.8338L40 82.3282C39.0596 84.3664 38.1742 86.4615 37.3682 88.555V88.555ZM43.0284 76.2852L41.991 75.7228C43.0715 73.73 44.2321 71.7451 45.4405 69.823L46.4396 70.4511C45.2446 72.3519 44.097 74.3147 43.0284 76.2852L43.0284 76.2852ZM50.2181 64.8489L49.2614 64.158C50.5892 62.3194 51.9941 60.4999 53.437 58.75L54.3475 59.5009C52.9206 61.2315 51.5313 63.0306 50.2181 64.849V64.8489ZM58.81 54.4286L57.9493 53.6213C59.4998 51.9686 61.1251 50.3438 62.7797 48.7916L63.587 49.6526C61.9507 51.1875 60.3434 52.7944 58.81 54.4287V54.4286ZM68.6586 45.1917L67.9079 44.2812C69.6573 42.8388 71.476 41.4347 73.3134 40.1082L74.0043 41.0648C72.1872 42.377 70.3887 43.7655 68.6586 45.1917V45.1917ZM79.6025 37.2897L78.9743 36.2905C80.8939 35.0838 82.8767 33.9246 84.8678 32.845L85.4304 33.8822C83.4615 34.9501 81.5007 36.0963 79.6025 37.2897V37.2897ZM91.4641 30.8583L90.9696 29.7864C93.0262 28.8376 95.1408 27.9435 97.2547 27.129L97.6789 28.2302C95.5887 29.0356 93.4977 29.9199 91.4641 30.8583V30.8583ZM104.049 26.0102L103.696 24.8836C105.86 24.2073 108.074 23.593 110.278 23.058L110.557 24.2047C108.377 24.7341 106.188 25.3414 104.049 26.0102V26.0102ZM117.168 22.8243L116.964 21.662C119.195 21.271 121.469 20.9474 123.725 20.7002L123.854 21.8735C121.623 22.1178 119.373 22.4379 117.168 22.8243V22.8243Z" fill="#E6E6E6"/>
<path d="M130.633 21.351L130.58 20.1719C131.762 20.1189 132.96 20.0849 134.14 20.0708L134.154 21.251C132.987 21.2648 131.802 21.2985 130.633 21.351Z" fill="#E6E6E6"/>
<path d="M34.7557 121.214L33.9124 120.387L29.8443 124.548L25.991 120.186L25.1064 120.969L29.8006 126.28L34.7557 121.214Z" fill="#E6E6E6"/>
<path d="M130.36 25.6094L129.534 24.7662L133.694 20.6981L129.333 16.8448L130.116 15.9602L135.427 20.6544L130.36 25.6094Z" fill="#E6E6E6"/>
<path d="M306.923 33.0199C305.884 32.4733 304.837 31.936 303.783 31.4082L304.311 30.353C305.373 30.8841 306.427 31.4249 307.472 31.9754L306.923 33.0199Z" fill="#E6E6E6"/>
<path d="M387.12 250.84L386.028 250.392C386.916 248.225 387.77 246.015 388.566 243.823L389.675 244.225C388.874 246.433 388.014 248.658 387.12 250.84ZM391.958 237.512L390.834 237.155C391.541 234.926 392.211 232.653 392.826 230.399L393.965 230.71C393.346 232.98 392.671 235.268 391.958 237.512V237.512ZM395.69 223.832L394.54 223.568C395.062 221.287 395.543 218.967 395.97 216.671L397.131 216.887C396.701 219.199 396.216 221.535 395.69 223.832V223.832ZM398.284 209.889L397.115 209.721C397.448 207.407 397.736 205.055 397.973 202.73L399.147 202.849C398.909 205.19 398.618 207.559 398.284 209.889V209.889ZM399.719 195.779L398.541 195.708C398.682 193.376 398.776 191.008 398.82 188.67L400 188.692C399.955 191.046 399.861 193.431 399.719 195.779V195.779ZM399.989 181.599L398.81 181.625C398.787 180.598 398.755 179.573 398.714 178.548C398.661 177.234 398.592 175.901 398.509 174.586L399.687 174.512C399.771 175.836 399.84 177.178 399.893 178.501C399.934 179.533 399.966 180.565 399.989 181.599L399.989 181.599ZM397.921 167.569C397.679 165.244 397.385 162.893 397.047 160.581L398.215 160.411C398.555 162.738 398.851 165.105 399.095 167.447L397.921 167.569ZM395.888 153.634C395.457 151.338 394.972 149.018 394.447 146.739L395.597 146.474C396.125 148.769 396.614 151.104 397.048 153.416L395.888 153.634ZM392.725 139.908C392.108 137.652 391.435 135.379 390.727 133.152L391.852 132.795C392.565 135.036 393.242 137.325 393.864 139.597L392.725 139.908ZM388.456 126.483C387.657 124.285 386.802 122.074 385.915 119.911L387.007 119.463C387.9 121.641 388.761 123.867 389.565 126.08L388.456 126.483ZM383.109 113.446C382.133 111.32 381.101 109.186 380.041 107.102L381.093 106.566C382.16 108.664 383.2 110.814 384.181 112.954L383.109 113.446ZM376.716 100.887C375.572 98.8477 374.369 96.8041 373.141 94.8128L374.145 94.1935C375.382 96.1983 376.593 98.256 377.746 100.309L376.716 100.887ZM369.319 88.8897C368.011 86.9498 366.644 85.0111 365.258 83.1276L366.208 82.4281C367.604 84.3244 368.98 86.2766 370.298 88.23L369.319 88.8897ZM360.962 77.5364C359.498 75.7091 357.976 73.8891 356.44 72.1267L357.33 71.3511C358.876 73.1258 360.408 74.9584 361.883 76.7982L360.962 77.5364ZM351.698 66.9071C350.087 65.2063 348.421 63.5175 346.744 61.887L347.566 61.0409C349.255 62.6824 350.933 64.3832 352.555 66.0954L351.698 66.9071ZM341.586 57.0749C339.841 55.5132 338.04 53.967 336.232 52.4793L336.982 51.568C338.802 53.0662 340.616 54.6231 342.373 56.1956L341.586 57.0749ZM330.693 48.1081C328.832 46.7004 326.912 45.3098 324.988 43.975L325.66 43.0051C327.598 44.3492 329.531 45.7494 331.405 47.1666L330.693 48.1081ZM319.118 40.0798C317.148 38.8296 315.122 37.6007 313.094 36.4267L313.685 35.4053C315.727 36.5871 317.767 37.8247 319.75 39.0833L319.118 40.0798Z" fill="#E6E6E6"/>
<path d="M382.782 260.569L381.719 260.056C382.231 258.995 382.732 257.93 383.22 256.863L384.293 257.354C383.801 258.429 383.297 259.5 382.782 260.569Z" fill="#E6E6E6"/>
<path d="M305.262 36.9948L306.375 36.6024L304.436 31.1162L310.05 29.582L309.737 28.4431L302.9 30.3125L305.262 36.9948Z" fill="#E6E6E6"/>
<path d="M379.477 254.73L380.598 254.361L382.413 259.889L387.796 257.675L388.244 258.768L381.688 261.464L379.477 254.73Z" fill="#E6E6E6"/>
</g>
<defs>
<clipPath id="clip0_204_309">
<rect width="400" height="368.049" fill="white"/>
</clipPath>
</defs>
</svg>
